<?xml version="1.0" encoding="UTF-8"?><svg xmlns="http://www.w3.org/2000/svg" version="1.2" width="500" height="500" baseProfile="tiny-ps"><title>Company Name</title><path d="M0 0 C165 0 330 0 500 0 C500 165 500 330 500 500 C335 500 170 500 0 500 C0 335 0 170 0 0 Z " fill="#EEF0E7" transform="translate(0,0)"/><path d="M0 0 C1.65 0 3.3 0 5 0 C4.95697754 1.15411377 4.91395508 2.30822754 4.86962891 3.49731445 C4.72725107 7.82701921 4.67932491 12.15374372 4.65820312 16.4855957 C4.63629352 18.35097312 4.5896059 20.2162452 4.51660156 22.08032227 C3.8447503 32.43056458 3.8447503 32.43056458 7.30383301 41.86175537 C10.55249273 45.17592121 14.30366695 47.60220665 18.28289795 49.95297241 C20.57162228 51.34855488 22.56526239 53.00280937 24.59375 54.75 C25.24359863 55.28963379 25.89344727 55.82926758 26.56298828 56.38525391 C27.20220215 56.91812012 27.84141602 57.45098633 28.5 58 C33.09915423 61.81019108 37.70613011 65.60418395 42.41357422 69.28027344 C43.55240435 70.17509175 44.68179972 71.08205261 45.80126953 72.00097656 C48.81634067 74.44837113 51.75761296 76.45653524 55.203125 78.2578125 C59.75812827 80.85721226 63.57860234 83.20462728 66 88 C67.85472362 98.18213959 66.91866466 108.75241354 66 119 C66.9590625 119.4640625 66.9590625 119.4640625 67.9375 119.9375 C70 121 70 121 71 122 C71.26356644 125.49225533 71.3395285 128.17239929 70 131.4375 C67.40993975 133.46098457 65.18263607 133.62026024 61.94140625 133.453125 C60 133 60 133 57.5 130.8125 C55.87275422 127.76141417 55.30682582 126.37922411 56 123 C56.6499292 122.41395996 57.2998584 121.82791992 57.96948242 121.22412109 C63.01822854 115.69399278 61.48442771 105.04275171 61.21484375 97.98046875 C60.54662843 91.931235 59.17412553 88.62645987 54.62182617 84.59130859 C51.58863647 82.35868586 48.49143378 80.31132796 45.25683594 78.38232422 C41.94648085 76.35471382 39.00381973 73.94858829 36 71.5 C34.87503384 70.62068402 33.74870592 69.74310773 32.62109375 68.8671875 C27.65016273 64.96215083 22.79764789 60.91060373 17.94726562 56.85742188 C17.27501953 56.29861328 16.60277344 55.73980469 15.91015625 55.1640625 C15.32371338 54.67373535 14.73727051 54.1834082 14.13305664 53.67822266 C11.16905187 51.34623584 8.06891753 49.19208395 5 47 C5 62.84 5 78.68 5 95 C6.98 95.99 6.98 95.99 9 97 C11.1591132 98.61506225 13.27310831 100.25137032 15.375 101.9375 C16.62494667 102.92975468 17.87494829 103.92194015 19.125 104.9140625 C19.764375 105.42356445 20.40375 105.93306641 21.0625 106.45800781 C24.15747714 108.92119779 27.26588835 111.36719348 30.375 113.8125 C30.92075684 114.24361084 31.46651367 114.67472168 32.02880859 115.11889648 C32.56328613 115.53985596 33.09776367 115.96081543 33.6484375 116.39453125 C34.17856445 116.82894531 34.70869141 117.26335937 35.25488281 117.7109375 C37.00612831 119.07688743 37.00612831 119.07688743 39.17480469 120.1171875 C41.707761 121.54666661 43.24992588 122.65982226 45 125 C45.99410403 130.15227512 45.75594221 135.17043925 45.5 140.375 C45.45983192 141.79286851 45.42333688 143.21084612 45.390625 144.62890625 C45.30285793 148.0882195 45.16505283 151.54341275 45 155 C45.639375 155.28875 46.27875 155.5775 46.9375 155.875 C49 157 49 157 50 159 C50.38503376 162.54231061 50.41935959 164.36257342 48.4375 167.375 C45.04129157 169.63913895 42.99900698 169.64269755 39 169 C36.5 166.9375 36.5 166.9375 35 164 C35.0625 160.3125 35.0625 160.3125 36 157 C36.99 156.34 37.98 155.68 39 155 C39.51104922 152.19189856 39.51104922 152.19189856 39.51171875 148.8984375 C39.56489258 147.08085937 39.56489258 147.08085937 39.61914062 145.2265625 C39.64169922 143.95554687 39.66425781 142.68453125 39.6875 141.375 C39.72166016 140.09625 39.75582031 138.8175 39.79101562 137.5 C39.87372479 134.33342068 39.94280085 131.16712636 40 128 C39.41009277 127.72470459 38.82018555 127.44940918 38.21240234 127.16577148 C36.0981876 126.05173756 34.43683658 124.86807816 32.6015625 123.34765625 C31.95574219 122.81720703 31.30992187 122.28675781 30.64453125 121.74023438 C29.97808594 121.18658203 29.31164062 120.63292969 28.625 120.0625 C21.18024007 113.90949 13.60057592 107.97188108 6 102 C5.67 117.51 5.34 133.02 5 149 C6.98 149.99 6.98 149.99 9 151 C10.42041821 153.84083641 10.31452272 155.85477278 10 159 C8.4375 161.375 8.4375 161.375 6 163 C2.5 163.5625 2.5 163.5625 -1 163 C-3.5 160.9375 -3.5 160.9375 -5 158 C-4.9375 154.3125 -4.9375 154.3125 -4 151 C-3.01 150.34 -2.02 149.68 -1 149 C-0.58321393 146.48103926 -0.58321393 146.48103926 -0.70703125 143.5546875 C-0.71669922 142.47832031 -0.72636719 141.40195312 -0.73632812 140.29296875 C-0.76146484 139.16503906 -0.78660156 138.03710938 -0.8125 136.875 C-0.82603516 135.73933594 -0.83957031 134.60367188 -0.85351562 133.43359375 C-0.88895681 130.62192613 -0.93836483 127.81119583 -1 125 C-1.93199219 125.75023437 -2.86398438 126.50046875 -3.82421875 127.2734375 C-10.97267495 133.01677085 -18.1591939 138.69650232 -25.44140625 144.26953125 C-29.8940123 147.67934811 -34.32188378 151.12097697 -38.75 154.5625 C-39.54962158 155.18302246 -40.34924316 155.80354492 -41.1730957 156.44287109 C-41.91519287 157.0198877 -42.65729004 157.5969043 -43.421875 158.19140625 C-44.42105957 158.96786499 -44.42105957 158.96786499 -45.44042969 159.76000977 C-46.94968225 160.91187655 -46.94968225 160.91187655 -48 162 C-48.1584265 164.0708472 -48.25124422 166.14678029 -48.31640625 168.22265625 C-48.37924805 170.11274414 -48.37924805 170.11274414 -48.44335938 172.04101562 C-48.48317596 173.38150736 -48.52288814 174.7220022 -48.5625 176.0625 C-48.60568042 177.40691523 -48.64929456 178.7513166 -48.69335938 180.09570312 C-48.79985358 183.3970234 -48.9018646 186.69842236 -49 190 C-48.35933594 190.27199219 -47.71867188 190.54398438 -47.05859375 190.82421875 C-45 192 -45 192 -44.0625 194.8125 C-43.98941126 198.54002557 -44.8065615 200.04729432 -47 203 C-48 204 -48 204 -51.3125 204.3125 C-55 204 -55 204 -57.4375 202.4375 C-59.58016848 199.09493717 -59.49573337 196.89504791 -59 193 C-57.625 191.0625 -57.625 191.0625 -56 190 C-55.34 190 -54.68 190 -54 190 C-54.08378906 189.12899658 -54.16757813 188.25799316 -54.25390625 187.3605957 C-56.26844013 163.30572239 -56.26844013 163.30572239 -52.63916016 156.41699219 C-49.13855596 152.36675492 -44.78992682 149.74375876 -40.12451172 147.20166016 C-36.94899196 145.40553188 -34.20585514 143.16156213 -31.375 140.875 C-30.33472656 140.0809375 -29.29445312 139.286875 -28.22265625 138.46875 C-24.72921423 135.80052203 -21.26838553 133.09161834 -17.8125 130.375 C-17.27866699 129.95589355 -16.74483398 129.53678711 -16.19482422 129.10498047 C-15.12504003 128.26320962 -14.063905 127.41032174 -13.01203918 126.54626465 C-11 125 -11 125 -8.50471497 123.45425415 C-4.51316548 120.78303143 -1.52629151 118.71535349 -0.08131409 114.00570679 C0.25192618 110.40716043 0.28131963 106.92544011 0.1953125 103.3125 C0.20335907 102.01425293 0.21140564 100.71600586 0.21969604 99.37841797 C0.24038193 95.95123845 0.20178356 92.52727696 0.15020752 89.1005249 C0.1081311 85.59432664 0.12297062 82.08840013 0.1328125 78.58203125 C0.14378762 71.72057175 0.09204348 64.86083084 0 58 C-7.58981799 63.941843 -15.16853683 69.89090595 -22.625 76 C-23.94994089 77.08404254 -25.27544307 78.1673995 -26.6015625 79.25 C-27.16182129 79.70890625 -27.72208008 80.1678125 -28.29931641 80.640625 C-30 82 -30 82 -32.17919922 83.29321289 C-34.26414953 84.91078574 -34.26414953 84.91078574 -34.51757812 87.75561523 C-34.52208984 88.84559814 -34.52660156 89.93558105 -34.53125 91.05859375 C-34.53640625 92.24904297 -34.5415625 93.43949219 -34.546875 94.66601562 C-34.53140625 95.91060547 -34.5159375 97.15519531 -34.5 98.4375 C-34.51546875 99.67822266 -34.5309375 100.91894531 -34.546875 102.19726562 C-34.54171875 103.38900391 -34.5365625 104.58074219 -34.53125 105.80859375 C-34.52673828 106.89970459 -34.52222656 107.99081543 -34.51757812 109.11499023 C-33.88438492 112.64444502 -32.58839078 113.62699218 -30 116 C-29.43711998 119.94016013 -29.39603972 122.05782196 -31.5625 125.4375 C-34.96719488 127.61999672 -37.03430012 127.63734462 -41 127 C-43.99980859 124.38478226 -44.88569598 122.81645726 -45.4375 118.875 C-45 116 -45 116 -43.625 114.125 C-42 113 -42 113 -40 113 C-40.08902588 112.1342334 -40.17805176 111.2684668 -40.26977539 110.37646484 C-42.40989016 86.45116091 -42.40989016 86.45116091 -38.55712891 79.33496094 C-34.81976333 75.04424036 -30.20200912 72.17464691 -25.29638672 69.36914062 C-21.73646453 67.24666097 -18.62937159 64.63006658 -15.4375 62 C-14.37724179 61.1621624 -13.31354323 60.3286561 -12.24609375 59.5 C-11.76342545 59.1122641 -11.28075714 58.7245282 -10.78346252 58.32504272 C-9 57 -9 57 -6.96815491 55.85617065 C-3.64131544 53.83890482 -1.39144852 52.3235935 -0.2587738 48.49371338 C0.02235157 45.39047646 0.05577401 42.37331727 0 39.2578125 C0.01087646 38.13430389 0.02175293 37.01079529 0.03295898 35.85324097 C0.0590873 32.27618142 0.03028897 28.70198294 0 25.125 C0.00809253 22.69529772 0.01977032 20.26560455 0.03515625 17.8359375 C0.06498875 11.89010359 0.04976979 5.94567184 0 0 Z " fill="#3C393A" transform="translate(246,149)"/><path d="M0 0 C18.227819 5.69416271 37.47888675 14.25639978 48 31 C48.43054688 31.62519531 48.86109375 32.25039062 49.3046875 32.89453125 C53.58545357 40.37849124 53.30644054 50.67705593 52 59 C50.56764906 62.49284249 48.87010172 64.59347765 46 67 C44.7625 68.2375 44.7625 68.2375 43.5 69.5 C40.28320445 71.43007733 38.69481345 71.6786392 35 71 C29.77847811 67.51898541 26.97444518 63.90229966 25.42089844 57.6809082 C24.96049152 54.74835117 24.96953355 52.07119566 25.078125 49.10546875 C25.10390625 47.98462891 25.1296875 46.86378906 25.15625 45.70898438 C25.21845075 43.37256862 25.29642623 41.03651641 25.390625 38.70117188 C25.52478478 31.38527112 24.7874417 26.67619944 20 21 C19.84188612 24.05270463 19.84188612 24.05270463 21 27 C21.36336299 31.75752005 21.33978265 36.33852977 20 40.9375 C17.8599394 48.52778686 18.23258478 55.09307209 22 62 C22.25 65.8125 22.25 65.8125 22 69 C20.37606095 70.62393905 18.61552751 70.32581207 16.375 70.4375 C12.51359752 70.38233711 10.18013544 69.96675876 7.125 67.5625 C1.70456974 61.88153827 -0.47766946 55.43318472 -0.453125 47.65795898 C-0.41445312 46.40414429 -0.41445312 46.40414429 -0.375 45.125 C-0.36210937 44.24078369 -0.34921875 43.35656738 -0.3359375 42.44555664 C-0.2106643 37.12878584 0.38745528 32.18082527 1.546875 26.98828125 C2.19710368 22.70013519 2.2304307 18.45674658 2.25 14.125 C2.25902344 13.30314209 2.26804688 12.48128418 2.27734375 11.63452148 C2.25601788 7.3093677 2.00927388 3.93881467 0 0 Z " fill="#558743" transform="translate(224,73)"/><path d="M0 0 C3.69753551 2.04599855 5.65186045 3.47779067 8 7 C8.1875 9.625 8.1875 9.625 8 12 C6.08592481 13.91407519 2.48462912 13.22466796 -0.0625 13.3125 C-5.39640155 13.57346878 -9.48692634 14.2221959 -14.08203125 17.01171875 C-17.77036475 18.9122246 -21.93339753 19.36667666 -26 20 C-20.84833965 20.91400426 -17.21687727 21.30497826 -12.25 19.5625 C-5.62298336 17.31201078 2.3564074 16.25390161 8.8203125 19.3515625 C11 21 11 21 12.0625 23.75 C11.97987967 28.04625733 10.67869541 30.68111324 8 34 C5.5 35.8125 5.5 35.8125 3 37 C2.401875 37.34417969 1.80375 37.68835938 1.1875 38.04296875 C-4.25827937 40.42549722 -10.57668401 39.80268527 -16.1015625 37.97265625 C-29.25759091 31.83657582 -37.51972639 21.3339018 -46 10 C-45.67 9.34 -45.34 8.68 -45 8 C-44.40574219 8.04640625 -43.81148437 8.0928125 -43.19921875 8.140625 C-35.3108212 8.4841322 -28.78915109 6.55421391 -21.83203125 2.84375 C-14.96759011 -0.7623354 -7.60243638 -1.13743823 0 0 Z " fill="#85CB18" transform="translate(229,145)"/><path d="M0 0 C10.09173388 6.57004063 17.01182935 15.3496691 24 25 C21.57399976 26.21300012 20.5480725 25.88777662 17.875 25.625 C11.79039866 25.51902726 7.22385933 27.84705433 1.83129883 30.35424805 C-5.71962898 33.85603673 -13.5707387 36.31509152 -22 35 C-25.8026029 32.9949912 -27.61790841 31.57313738 -30 28 C-30.1875 24.875 -30.1875 24.875 -30 22 C-29.67 21.67 -29.34 21.34 -29 21 C-27.26988743 21.06059939 -25.54075661 21.14954651 -23.8125 21.25 C-17.329676 21.33509674 -12.28183746 19.62012189 -6.32421875 17.19140625 C-2.86351739 15.95108438 0.35446543 15.4019791 4 15 C-0.1866105 12.90669475 -5.86777347 13.36985745 -10.2734375 14.671875 C-10.98757813 14.94515625 -11.70171875 15.2184375 -12.4375 15.5 C-18.95322932 17.91451672 -25.23213709 18.12591034 -31.6875 15.5 C-34 13 -34 13 -34.6875 9.125 C-34.31052114 4.5241444 -32.40462259 2.11486748 -29 -1 C-20.15043217 -6.53097989 -8.6634579 -5.33008934 0 0 Z " fill="#85CB16" transform="translate(292,149)"/><path d="M0 0 C4.27323955 3.12676065 7.59701351 6.50012676 8.5625 11.875 C9.18695825 19.0442611 8.61290186 24.62891593 4.296875 30.63671875 C1.47819916 33.69028425 -0.65341378 34.75556361 -4.796875 35.38671875 C-10.04175669 35.54716344 -14.21513422 35.4018818 -19.0625 33.3125 C-24.30977104 27.92714288 -25.70350201 24.43008439 -26 16.9375 C-25.81838092 10.84028794 -24.88272718 6.23242022 -20.4375 1.875 C-14.32634308 -2.58925192 -7.0168251 -2.29641549 0 0 Z " fill="#090909" transform="translate(400.4375,372.125)"/><path d="M0 0 C17 0 17 0 23 4 C24.24380707 6.48761414 23.92578712 7.70611902 23.5625 10.4375 C22.70023327 15.59724021 22.70023327 15.59724021 24.5 20.3125 C26.32238914 23.57761388 26.53799708 25.31087715 26 29 C23.33075396 33.34988243 21.94310077 34.02275969 17 36 C11.39 36 5.78 36 0 36 C0 24.12 0 12.24 0 0 Z " fill="#0A0A0A" transform="translate(65,371)"/><path d="M0 0 C2.31 0 4.62 0 7 0 C9.31 7.59 11.62 15.18 14 23 C17.22441268 14.96792216 17.22441268 14.96792216 20.25 6.875 C20.58515625 5.94429688 20.9203125 5.01359375 21.265625 4.0546875 C21.50796875 3.37664062 21.7503125 2.69859375 22 2 C24.375 1.8125 24.375 1.8125 27 2 C29.09127499 5.13691248 29.93665084 7.71123545 31 11.3125 C32.26529673 15.56804876 33.5749933 19.79495791 35 24 C37.39657146 18.12839991 39.09045785 12.15813307 40.64160156 6.01733398 C41.89981013 1.10018987 41.89981013 1.10018987 43 0 C44.99958364 -0.04080783 47.00045254 -0.04254356 49 0 C47.74618109 6.89969171 46.06876945 13.55210286 44 20.25 C43.60941406 21.53777344 43.60941406 21.53777344 43.2109375 22.8515625 C41.86921956 27.25619209 40.48181206 31.64005298 39 36 C36.69 36 34.38 36 32 36 C28.535 25.11 28.535 25.11 25 14 C22.36 21.26 19.72 28.52 17 36 C15.02 36 13.04 36 11 36 C8.59658697 32.39488045 7.7134699 28.75905554 6.625 24.625 C4.7945879 17.83160511 2.84040047 11.10907973 0.69921875 4.40625 C0 2 0 2 0 0 Z " fill="#0A0A0A" transform="translate(192,371)"/><path d="M0 0 C1.98 0 3.96 0 6 0 C7.99599979 4.96535283 9.98977073 9.93159233 11.98144531 14.89868164 C12.65986312 16.58968518 13.33889854 18.28044107 14.01855469 19.97094727 C14.99314741 22.39535322 15.96554409 24.82062969 16.9375 27.24609375 C17.24373291 28.00651474 17.54996582 28.76693573 17.86547852 29.55039978 C20 34.88612829 20 34.88612829 20 36 C17.69 36 15.38 36 13 36 C12.01 33.69 11.02 31.38 10 29 C3.07 28.505 3.07 28.505 -4 28 C-4.66 30.64 -5.32 33.28 -6 36 C-8.31 36 -10.62 36 -13 36 C-12.39451018 31.31294407 -11.06579277 27.1971335 -9.27734375 22.8515625 C-9.01240616 22.19417084 -8.74746857 21.53677917 -8.47450256 20.85946655 C-7.63451863 18.77895646 -6.78616677 16.70198123 -5.9375 14.625 C-5.36337408 13.20725717 -4.78980069 11.78929046 -4.21679688 10.37109375 C-2.81757872 6.91145013 -1.41083966 3.45492329 0 0 Z " fill="#090908" transform="translate(268,371)"/><path d="M0 0 C1.98 0 3.96 0 6 0 C7.85794168 4.64219349 9.70916643 9.28698692 11.55419922 13.93432617 C12.18288913 15.51513888 12.813413 17.0952235 13.44580078 18.67456055 C14.35411208 20.94391287 15.2558103 23.21579609 16.15625 25.48828125 C16.44060913 26.19463211 16.72496826 26.90098297 17.01794434 27.6287384 C18.17832702 30.57331497 19 32.80440229 19 36 C16.69 36 14.38 36 12 36 C11.34 33.69 10.68 31.38 10 29 C5.38 29 0.76 29 -4 29 C-5.485 32.465 -5.485 32.465 -7 36 C-9.31 36 -11.62 36 -14 36 C-9.54367429 23.91390451 -4.82523279 11.94328056 0 0 Z " fill="#090908" transform="translate(119,371)"/><path d="M0 0 C2.76260939 2.0028918 4.6089762 3.9759643 6.5 6.8125 C6.5 7.4725 6.5 8.1325 6.5 8.8125 C4.52 9.4725 2.54 10.1325 0.5 10.8125 C-0.139375 9.9875 -0.77875 9.1625 -1.4375 8.3125 C-5.03640207 5.37462076 -6.82362969 5.04216642 -11.33984375 5.34375 C-13.77067603 5.74705178 -13.77067603 5.74705178 -16.5625 7.6875 C-19.29876715 12.10083411 -19.26047778 15.74804161 -18.5 20.8125 C-16.96523242 25.16514503 -16.96523242 25.16514503 -13.5 27.8125 C-10.44086932 28.2332056 -7.5519636 28.30712858 -4.5 27.8125 C-1.43275543 25.49993996 -1.43275543 25.49993996 0.5 22.8125 C2.48 23.4725 4.46 24.1325 6.5 24.8125 C5.14844718 29.23576378 3.30109562 31.21662982 -0.5 33.8125 C-6.51366298 35.81705433 -13.21377996 35.83313395 -19 33.25 C-23.64658219 28.71958236 -26.31341392 23.61129117 -26.75 17.0625 C-26.6551451 10.60050994 -23.88542758 5.46371107 -19.5 0.8125 C-13.84255729 -2.7751466 -6.10901087 -2.07270012 0 0 Z " fill="#0B0C0B" transform="translate(352.5,372.1875)"/><path d="M0 0 C3.49406769 1.66762322 4.82670681 2.74006022 7 6 C7.30078125 8.9609375 7.30078125 8.9609375 7.3125 12.375 C7.32925781 13.49648438 7.34601563 14.61796875 7.36328125 15.7734375 C6.96543005 19.30704066 6.08974284 21.15733511 4 24 C0.78477863 26.32826375 -2.10830425 26.39711181 -6 26 C-9.79536516 24.27483402 -11.50667756 22.8615871 -13 19 C-14.29034576 8.36483442 -14.29034576 8.36483442 -11.94921875 4.07421875 C-8.22217776 0.34717776 -5.12812932 -0.40220622 0 0 Z " fill="#E8EAE2" transform="translate(395,376)"/><path d="M0 0 C6.6 0 13.2 0 20 0 C20.13544969 4.33439014 20.23436297 8.66451135 20.3125 13 C20.35439453 14.22074219 20.39628906 15.44148438 20.43945312 16.69921875 C20.5380562 23.99584661 20.179712 29.50663591 15 35 C11.04139683 36.97930159 6.30430763 36.5598088 2 36 C-1.36667642 33.52652345 -3.55622145 30.93757787 -5 27 C-5 26.01 -5 25.02 -5 24 C-2.69 24 -0.38 24 2 24 C2.66 25.65 3.32 27.3 4 29 C6.31 29 8.62 29 11 29 C12.20270964 26.59458071 12.20316663 24.89633409 12.31640625 22.2109375 C12.35830078 21.26992188 12.40019531 20.32890625 12.44335938 19.359375 C12.48267578 18.37453125 12.52199219 17.3896875 12.5625 16.375 C12.60568359 15.38242187 12.64886719 14.38984375 12.69335938 13.3671875 C12.79960947 10.91162967 12.90032455 8.45583349 13 6 C8.71 6 4.42 6 0 6 C0 4.02 0 2.04 0 0 Z " fill="#0F0F0E" transform="translate(156,371)"/><path d="M0 0 C9.625 -0.25 9.625 -0.25 13 2 C13.3125 5 13.3125 5 13 8 C11 10 11 10 8.3984375 10.1953125 C7.40070313 10.17210937 6.40296875 10.14890625 5.375 10.125 C3.87066406 10.09792969 3.87066406 10.09792969 2.3359375 10.0703125 C1.56507812 10.04710937 0.79421875 10.02390625 0 10 C0 6.7 0 3.4 0 0 Z " fill="#DBDDD5" transform="translate(71,391)"/><path d="M0 0 C1.45792884 -0.05399736 2.91642712 -0.09279177 4.375 -0.125 C5.18710938 -0.14820313 5.99921875 -0.17140625 6.8359375 -0.1953125 C9 0 9 0 11 2 C11.1875 4.5625 11.1875 4.5625 11 7 C10 8 10 8 7.71484375 8.09765625 C6.34005859 8.08025391 6.34005859 8.08025391 4.9375 8.0625 C4.01839844 8.05347656 3.09929687 8.04445313 2.15234375 8.03515625 C1.44207031 8.02355469 0.73179688 8.01195312 0 8 C0 5.36 0 2.72 0 0 Z " fill="#EAECE3" transform="translate(72,377)"/><path d="M0 0 C3.49928164 2.33285443 3.6329098 3.20795069 4.6875 7.125 C5.06455078 8.49011719 5.06455078 8.49011719 5.44921875 9.8828125 C5.63097656 10.58148438 5.81273438 11.28015625 6 12 C2.7 12 -0.6 12 -4 12 C-3.52309796 10.37433394 -3.04340334 8.74948689 -2.5625 7.125 C-2.29566406 6.22007812 -2.02882813 5.31515625 -1.75390625 4.3828125 C-1 2 -1 2 0 0 Z " fill="#CFD1C9" transform="translate(121,382)"/><path d="M0 0 C1.90389849 2.85584773 2.69462177 4.9311762 3.625 8.1875 C3.88539063 9.08855469 4.14578125 9.98960937 4.4140625 10.91796875 C4.60742188 11.60503906 4.80078125 12.29210937 5 13 C2.03 13 -0.94 13 -4 13 C-3.50269348 8.02693484 -2.44697666 4.36200187 0 0 Z " fill="#D2D4CC" transform="translate(271,381)"/><path d="M0 0 C1.98 0 3.96 0 6 0 C6 2.31 6 4.62 6 7 C4.02 7 2.04 7 0 7 C0 4.69 0 2.38 0 0 Z " fill="#0F0F0E" transform="translate(428,400)"/><path d="M0 0 C1.98 0.495 1.98 0.495 4 1 C3.67 2.32 3.34 3.64 3 5 C1.68 4.67 0.36 4.34 -1 4 C-0.67 2.68 -0.34 1.36 0 0 Z " fill="#C8C9C2" transform="translate(207,266)"/><path d="M0 0 C1.65 0 3.3 0 5 0 C4.67 1.32 4.34 2.64 4 4 C2.68 3.67 1.36 3.34 0 3 C0 2.01 0 1.02 0 0 Z " fill="#D0D2CA" transform="translate(192,344)"/><path d="M0 0 C1.32 0 2.64 0 4 0 C3.67 1.32 3.34 2.64 3 4 C1.68 3.67 0.36 3.34 -1 3 C-0.67 2.01 -0.34 1.02 0 0 Z " fill="#DBDCD4" transform="translate(287,309)"/><path d="M0 0 C1.32 0 2.64 0 4 0 C3.67 1.32 3.34 2.64 3 4 C1.68 3.67 0.36 3.34 -1 3 C-0.67 2.01 -0.34 1.02 0 0 Z " fill="#DADCD4" transform="translate(247,303)"/></svg>
